<svg xmlns="http://www.w3.org/2000/svg" viewBox="0 0 17.6 26.9">
  <path d="M8.8 0c-.2 0-.3.1-.4.2-1.8 1.8-3 3.5-3.7 5.2-.7 1.7-1 3.8-1 6.4 0 1.1.1 2.4.2 3.9L.2 19.8c-.2.1-.2.2-.2.4l1.7 6.3c.1.2.2.3.5.4h1.3c.1 0 .2 0 .3-.1l.1-.1 2-3.8h5.8l2 3.8c.1.2.2.2.4.2h1.3c.1 0 .2-.1.3-.1.1-.1.1-.1.1-.2l1.7-6.3c0-.2 0-.3-.1-.4l-3.7-4.1c.1-1.5.2-2.7.2-3.9 0-2.5-.4-4.6-1.1-6.4-.7-1.8-2-3.5-3.7-5.3C9 0 8.9 0 8.8 0zm1.4 6.4c0 .4-.1.7-.4 1-.3.3-.6.4-1 .4s-.7-.1-1-.4c-.3-.3-.4-.6-.4-1s.1-.7.4-1c.3-.2.6-.4 1-.4s.7.1 1 .4c.3.3.4.7.4 1z"/>
</svg>
