<svg xmlns="http://www.w3.org/2000/svg" viewBox="0 0 22 22">
  <path d="M21.5 8.5l-1.7-.4c-.1-.5-.3-.9-.5-1.3l.9-1.5c.2-.3.1-.6-.1-.8l-2.6-2.6c-.2-.2-.6-.3-.8-.1l-1.5.9c-.4-.2-.9-.4-1.3-.5L13.5.5c-.1-.3-.3-.5-.6-.5H9.1c-.3 0-.5.2-.6.5l-.4 1.7c-.4.2-.9.3-1.3.6l-1.4-1c-.3-.2-.6-.1-.9.1L1.9 4.5c-.2.3-.3.6-.1.9l.9 1.5c-.2.3-.3.8-.5 1.2l-1.7.4c-.3.1-.5.3-.5.6v3.7c0 .3.2.6.5.6l1.7.4c.1.5.3.9.5 1.3l-.9 1.5c-.2.3-.1.6.1.8L4.5 20c.2.2.6.3.8.1l1.5-.9c.4.2.9.4 1.3.5l.4 1.7c.1.4.3.6.6.6h3.7c.3 0 .6-.2.6-.5l.4-1.7c.5-.1.9-.3 1.3-.5l1.5.9c.3.2.6.1.8-.1l2.6-2.6c.2-.2.3-.6.1-.8l-.9-1.5c.2-.4.4-.9.5-1.3l1.7-.4c.3-.1.5-.3.5-.6V9.1c.1-.3-.1-.5-.4-.6zM14.9 11c0 2.2-1.8 3.9-3.9 3.9-2.2 0-3.9-1.8-3.9-3.9 0-2.2 1.8-3.9 3.9-3.9 2.2 0 3.9 1.7 3.9 3.9z"/>
</svg>
