<svg xmlns="http://www.w3.org/2000/svg" viewBox="0 0 22 22">
  <path d="M14.1 10.5c.4 0 .6-.3.6-.6 0-.4-.3-.6-.6-.6-.4 0-.6.3-.6.6-.1.3.2.6.6.6zm1-1c.4 0 .6-.3.6-.6 0-.4-.3-.6-.6-.6-.4 0-.6.3-.6.6s.3.6.6.6zm-8.2-.9H6v.9h-.9v1H6v.9h1v-.9h.9v-1h-1v-.9zM11 0C4.9 0 0 4.9 0 11s4.9 11 11 11 11-4.9 11-11S17.1 0 11 0zm5.7 15.8h-1l-2.1-3.3H8.4l-2.1 3.3h-1c-.8 0-1.4-.6-1.4-1.4l.3-4.9c0-1.6 1.3-3 3-3 .7 0 1.2.2 1.7.6.6-.2 1-.3 1.8-.4h.5c.9 0 1.2.2 1.8.4.5-.4 1-.6 1.7-.6 1.6 0 3 1.3 3 3l.3 4.9c0 .8-.6 1.4-1.3 1.4zm-.5-5.3c.4 0 .6-.3.6-.6 0-.4-.3-.6-.6-.6-.4 0-.6.3-.6.6-.1.3.2.6.6.6zm-1.1 1.1c.4 0 .6-.3.6-.6s-.3-.6-.6-.6c-.4 0-.6.3-.6.6s.3.6.6.6z"/>
</svg>
