<svg xmlns="http://www.w3.org/2000/svg" viewBox="0 0 24 24">
  <path d="M8.5 12.8H5.7c.1 1.2.6 2.3 1.3 3.2l2-2c-.2-.4-.4-.8-.5-1.2zM10 15l-2 2c.9.7 2 1.2 3.2 1.3v-2.8c-.4-.1-.8-.3-1.2-.5zM8 7l2 2c.4-.2.8-.4 1.2-.5V5.7C10 5.8 8.9 6.3 8 7zM7 8c-.7.9-1.2 2-1.3 3.2h2.8c.1-.4.3-.8.5-1.2L7 8zm5.8-2.3v2.8c.4.1.8.3 1.2.5l2-2c-.9-.7-2-1.2-3.2-1.3zm2.7 7.1c-.1.4-.3.9-.5 1.2l2 2c.7-.9 1.2-2 1.3-3.2h-2.8zM12 0C5.5 0 0 5.4 0 12s5.5 12 12 12c6.6 0 12-5.5 12-12 0-6.6-5.4-12-12-12zm0 19.8c-4.3 0-7.8-3.6-7.8-7.8 0-4.3 3.6-7.7 7.8-7.7 4.3 0 7.7 3.5 7.7 7.7.1 4.2-3.4 7.8-7.7 7.8zM17 8l-2 2c.2.4.4.8.5 1.2h2.8C18.2 10 17.7 8.9 17 8zm-3 7c-.4.2-.8.4-1.2.5v2.8c1.2-.1 2.3-.6 3.2-1.3l-2-2zm-.5-4.5c-.8-.8-2.3-.8-3.1 0-.4.4-.6.9-.6 1.5 0 .7.5 1.5.6 1.6.4.7 2.1 1 3.1 0 .9-.9.9-2.3 0-3.1z"/>
</svg>
