<svg width="34" height="34" viewBox="0 0 34 34" fill="none" xmlns="http://www.w3.org/2000/svg">
<path d="M16.9649 0.232512C16.8299 0.236189 16.7138 0.286236 16.6167 0.383279C14.8085 2.19151 13.5614 3.9304 12.8756 5.60017C12.19 7.26987 11.8436 9.40381 11.8365 12.0018C11.8435 13.1172 11.9093 14.4025 12.034 15.8574L8.30318 20.0038C8.20639 20.1288 8.17163 20.2741 8.19933 20.4403L9.86232 26.7591C9.91769 26.9808 10.0702 27.0986 10.3196 27.1125L11.6497 27.1125C11.7745 27.1125 11.8852 27.064 11.9823 26.967C12.0239 26.9254 12.0515 26.8908 12.0653 26.863L14.0502 23.1111L19.8909 23.1113L21.8756 26.8628C21.9659 27.0222 22.1043 27.1052 22.2914 27.1122L23.6217 27.1123C23.76 27.0982 23.871 27.0497 23.9541 26.9667C24.0166 26.9042 24.058 26.8348 24.0788 26.7587L25.7417 20.44C25.7695 20.2737 25.7349 20.1285 25.638 20.0037L21.9069 15.8571C22.0316 14.4021 22.0977 13.1168 22.1044 12.0014C22.0977 9.52753 21.727 7.40094 20.9925 5.62059C20.2581 3.83992 19.0282 2.08708 17.3032 0.362059C17.213 0.272115 17.1005 0.228835 16.9649 0.232512ZM18.384 6.68077C18.384 7.06847 18.2454 7.40127 17.9683 7.67842C17.6912 7.95557 17.3587 8.094 16.9707 8.09411C16.5828 8.09392 16.2501 7.9555 15.9729 7.67831C15.6959 7.40127 15.5573 7.06861 15.5572 6.68066C15.5573 6.29282 15.6958 5.9602 15.9729 5.68305C16.2501 5.40591 16.5826 5.26726 16.9705 5.26733C17.3585 5.2674 17.6912 5.40598 17.9682 5.68302C18.2454 5.96024 18.384 6.29242 18.384 6.68077Z" fill="white" fill-opacity="0.8"/>
</svg>
