<svg xmlns="http://www.w3.org/2000/svg" viewBox="0 0 24 20.2">
  <path d="M14.5 3.5c1.1.7 1.9 1.9 2 3.2.5.2 1 .3 1.5.3 1.9 0 3.5-1.6 3.5-3.5S19.9 0 18 0s-3.5 1.5-3.5 3.5zm-2.3 7.2c1.9 0 3.5-1.6 3.5-3.5s-1.6-3.5-3.5-3.5-3.5 1.6-3.5 3.5 1.5 3.5 3.5 3.5zm1.5.2h-3c-2.5 0-4.5 2-4.5 4.5V19.2l.3.1c2.4.7 4.4 1 6.1 1 3.3 0 5.2-.9 5.4-1l.2-.1v-3.7c0-2.6-2-4.6-4.5-4.6zm5.8-3.6h-3c0 1.2-.5 2.3-1.3 3 2.2.7 3.8 2.7 3.8 5.1v1.1c2.9-.1 4.6-.9 4.7-1l.2-.1v-3.7c.1-2.4-1.9-4.4-4.4-4.4zM6 7c.7 0 1.3-.2 1.9-.5.1-1.1.7-2.1 1.6-2.8v-.2C9.5 1.6 7.9 0 6 0S2.5 1.6 2.5 3.5C2.5 5.5 4.1 7 6 7zm3.2 3.3c-.8-.8-1.3-1.8-1.3-3H4.6C2 7.3 0 9.3 0 11.8V15.6l.3.1c1.9.6 3.6.9 5.1 1v-1.1C5.3 13 7 11 9.2 10.3z"/>
</svg>
