<svg xmlns="http://www.w3.org/2000/svg" viewBox="0 0 28 28">
  <path d="M27.1 13.1h-1.5c-.4-5.7-5-10.3-10.7-10.7V.9c0-.5-.4-.9-.9-.9s-.9.4-.9.9v1.5c-5.7.4-10.3 5-10.7 10.7H.9c-.5 0-.9.4-.9.9s.4.9.9.9h1.5c.4 5.7 5 10.3 10.7 10.7v1.5c0 .5.4.9.9.9s.9-.4.9-.9v-1.5c5.7-.4 10.3-5 10.7-10.7h1.5c.5 0 .9-.4.9-.9s-.4-.9-.9-.9zM14.9 23.9V23c0-.5-.4-.9-.9-.9s-.9.4-.9.9v.8c-4.8-.4-8.6-4.2-9-9H5c.5 0 .9-.4.9-.9s-.5-.8-.9-.8h-.9c.4-4.8 4.2-8.6 9-9V5c0 .5.4.9.9.9s.9-.4.9-.9v-.9c4.8.4 8.6 4.2 9 9H23c-.5 0-.9.4-.9.9s.4.9.9.9h.8c-.3 4.7-4.2 8.6-8.9 9zM14 10.5c-1.9 0-3.5 1.6-3.5 3.5s1.6 3.5 3.5 3.5 3.5-1.6 3.5-3.5-1.6-3.5-3.5-3.5zm0 5.3c-1 0-1.8-.8-1.8-1.8s.8-1.8 1.8-1.8 1.8.8 1.8 1.8-.8 1.8-1.8 1.8z"/>
</svg>
