<svg xmlns="http://www.w3.org/2000/svg" viewBox="0 0 22 22">
  <path d="M11 0c-.1 0-.3 0-.4.1-.1.1-.3.1-.4.2-.1.1-.2.3-.2.4-.1.1-.1.3-.1.4V10c0 .3.1.6.3.8.2.2.5.3.8.3s.6-.1.8-.3c.2-.2.3-.5.3-.8V1.1c0-.1 0-.3-.1-.4-.1-.1-.1-.3-.2-.4-.1-.1-.2-.2-.4-.2-.1-.1-.3-.1-.4-.1zm6.4 2.2h-.1c-.2 0-.4.1-.6.2-.2.1-.3.3-.4.5-.1.2-.1.4 0 .6.1.2.2.4.4.5 1.9 1.6 3.1 4 3.1 6.8 0 4.9-3.9 8.9-8.8 8.9s-8.8-4-8.8-8.9c0-2.7 1.2-5.1 3.1-6.7.1 0 .2-.1.2-.2.1-.1.1-.3.1-.4 0-.1 0-.3-.1-.4 0-.1-.1-.3-.2-.4 0-.2-.1-.3-.2-.3-.2-.1-.3-.1-.4-.1-.1 0-.3 0-.4.1-.2 0-.3 0-.4.1C1.5 4.5 0 7.6 0 10.9 0 17 4.9 22 11 22s11-5 11-11.1c0-3.4-1.5-6.4-3.9-8.4-.2-.2-.4-.3-.7-.3z"/>
</svg>
